<?xml version="1.0" encoding="utf-8"?>
<!-- Generator: Adobe Illustrator 24.0.0, SVG Export Plug-In . SVG Version: 6.00 Build 0)  -->
<svg version="1.1" id="Layer_1" xmlns="http://www.w3.org/2000/svg" xmlns:xlink="http://www.w3.org/1999/xlink" x="0px" y="0px"
	 viewBox="0 0 588 196" style="enable-background:new 0 0 588 196;" xml:space="preserve">
<style type="text/css">
	.st0{fill:none;}
	.st1{fill-rule:evenodd;clip-rule:evenodd;fill:#00EBC8;}
</style>
<rect x="-2604" y="-966" class="st0" width="5796" height="12544"/>
<rect x="-2604" y="-966" class="st0" width="5796" height="12544"/>
<rect x="-2604" y="-966" class="st0" width="5796" height="12544"/>
<rect x="-2604" y="-966" class="st0" width="5796" height="12544"/>
<rect x="-2604" y="-966" class="st0" width="5796" height="12544"/>
<rect x="-2604" y="-966" class="st0" width="5796" height="12544"/>
<g>
	<rect y="0" class="st0" width="588" height="196"/>
	<path class="st1" d="M245,39.2h-39.2c-5.4,0-9.8,4.4-9.8,9.8v39.2c0,5.4,4.4,9.8,9.8,9.8H245c5.4,0,9.8-4.4,9.8-9.8V49
		C254.8,43.6,250.4,39.2,245,39.2z M215.6,78.4h19.6V58.8h-19.6V78.4z"/>
	<rect y="0" class="st0" width="588" height="196"/>
	<path class="st1" d="M166.6,39.2h-39.2c-5.4,0-9.8,4.4-9.8,9.8v39.2c0,5.4,4.4,9.8,9.8,9.8h39.2c5.4,0,9.8-4.4,9.8-9.8V49
		C176.4,43.6,172,39.2,166.6,39.2z M137.2,78.4h19.6V58.8h-19.6L137.2,78.4L137.2,78.4z"/>
	<rect y="0" class="st0" width="588" height="196"/>
	<path class="st1" d="M88.2,39.2H49c-5.4,0-9.8,4.4-9.8,9.8v39.2c0,5.4,4.4,9.8,9.8,9.8h39.2c5.4,0,9.8-4.4,9.8-9.8V49
		C98,43.6,93.6,39.2,88.2,39.2z M58.8,78.4h19.6V58.8H58.8V78.4z"/>
	<rect y="0" class="st0" width="588" height="196"/>
	<path class="st1" d="M542.4,65.9L524.8,60l-10.9-10.9C482.5,17.5,439.8-0.2,395.2,0H9.8C4.4,0,0,4.4,0,9.8v176.4
		c0,5.4,4.4,9.8,9.8,9.8h511.5c36.9,0,66.7-29.9,66.7-66.8C588,100.5,569.6,75,542.4,65.9z M495.3,58.8h-87.5l-19.6-39.2h6.9
		C432.3,19.6,468.1,33.6,495.3,58.8z M19.6,176.4v-39.2h35.1l39.2,39.2H19.6z M121.7,176.4l-39.2-39.2h50.7l39.2,39.2H121.7z
		 M294,137.2h39.2V58.8H294V137.2z M284.2,156.8H343c5.4,0,9.8-4.4,9.8-9.8v-9.8h54.9c34.6,0,67.7,14.2,91.7,39.2H200.1l-39.2-39.2
		h113.5v9.8C274.4,152.4,278.8,156.8,284.2,156.8z M525.2,176l-6.4-7.6c-27.9-32.3-68.5-50.8-111.2-50.8h-54.9V49
		c0-5.4-4.4-9.8-9.8-9.8h-58.8c-5.4,0-9.8,4.4-9.8,9.8v68.6H19.6v-98h346.7L393,73c1.7,3.3,5,5.4,8.8,5.4h116l18.4,6.1
		c24.6,8.3,37.9,34.9,29.7,59.5C559.9,161.9,543.9,174.4,525.2,176z"/>
	<rect y="0" class="st0" width="588" height="196"/>
	<path class="st1" d="M529.2,107.8h-9.8c-5.4,0-9.8,4.4-9.8,9.8s4.4,9.8,9.8,9.8h9.8c5.4,0,9.8-4.4,9.8-9.8S534.6,107.8,529.2,107.8
		"/>
</g>
</svg>
