<?xml version="1.0" encoding="utf-8"?>
<!-- Generator: Adobe Illustrator 24.0.0, SVG Export Plug-In . SVG Version: 6.00 Build 0)  -->
<svg version="1.1" id="Layer_1" xmlns="http://www.w3.org/2000/svg" xmlns:xlink="http://www.w3.org/1999/xlink" x="0px" y="0px"
	 viewBox="0 0 422.1 554" style="enable-background:new 0 0 422.1 554;" xml:space="preserve">
<style type="text/css">
	.st0{clip-path:url(#SVGID_2_);enable-background:new    ;}
	.st1{clip-path:url(#SVGID_4_);}
	.st2{clip-path:url(#SVGID_6_);}
	.st3{clip-path:url(#SVGID_8_);fill:#FF2897;}
</style>
<g>
	<defs>
		<rect id="SVGID_1_" width="422.1" height="554"/>
	</defs>
	<clipPath id="SVGID_2_">
		<use xlink:href="#SVGID_1_"  style="overflow:visible;"/>
	</clipPath>
	<g class="st0">
		<g>
			<defs>
				<rect id="SVGID_3_" width="422.1" height="580.4"/>
			</defs>
			<clipPath id="SVGID_4_">
				<use xlink:href="#SVGID_3_"  style="overflow:visible;"/>
			</clipPath>
			<g class="st1">
				<defs>
					<path id="SVGID_5_" d="M211,0C94.5,0,0,93,0,207.8C0,294.6,176,554.2,211,554c34.5,0.2,211-260.6,211-346.2
						C422.1,93,327.6,0,211,0 M211,502.1c-29.2,0.2-175.9-221.9-175.9-294.3c0-95.6,78.7-173.1,175.9-173.1s175.9,77.5,175.9,173.1
						C386.9,279.2,239.8,502.2,211,502.1 M211,121.2c-48.6,0-87.9,38.7-87.9,86.6s39.4,86.6,87.9,86.6s87.9-38.7,87.9-86.6
						S259.6,121.2,211,121.2 M211,259.7c-29.1,0-52.8-23.3-52.8-51.9s23.6-51.9,52.8-51.9c29.1,0,52.8,23.3,52.8,51.9
						S240.2,259.7,211,259.7"/>
				</defs>
				<clipPath id="SVGID_6_">
					<use xlink:href="#SVGID_5_"  style="overflow:visible;"/>
				</clipPath>
				<g class="st2">
					<defs>
						<rect id="SVGID_7_" width="422.1" height="554"/>
					</defs>
					<clipPath id="SVGID_8_">
						<use xlink:href="#SVGID_7_"  style="overflow:visible;"/>
					</clipPath>
					<rect x="-131.9" y="-131.9" class="st3" width="685.9" height="817.8"/>
				</g>
			</g>
		</g>
	</g>
</g>
</svg>
