<?xml version="1.0" encoding="utf-8"?>
<!-- Generator: Adobe Illustrator 24.0.0, SVG Export Plug-In . SVG Version: 6.00 Build 0)  -->
<svg version="1.1" id="Layer_1" xmlns="http://www.w3.org/2000/svg" xmlns:xlink="http://www.w3.org/1999/xlink" x="0px" y="0px"
	 viewBox="0 0 280.7 340" style="enable-background:new 0 0 280.7 340;" xml:space="preserve">
<style type="text/css">
	.st0{clip-path:url(#SVGID_2_);enable-background:new    ;}
	.st1{clip-path:url(#SVGID_4_);}
	.st2{clip-path:url(#SVGID_6_);}
	.st3{clip-path:url(#SVGID_8_);fill:#00EBC8;}
</style>
<g>
	<defs>
		<rect id="SVGID_1_" width="280.7" height="340"/>
	</defs>
	<clipPath id="SVGID_2_">
		<use xlink:href="#SVGID_1_"  style="overflow:visible;"/>
	</clipPath>
	<g class="st0">
		<g>
			<defs>
				<rect id="SVGID_3_" x="0" y="-6.6" width="291.4" height="356.2"/>
			</defs>
			<clipPath id="SVGID_4_">
				<use xlink:href="#SVGID_3_"  style="overflow:visible;"/>
			</clipPath>
			<g class="st1">
				<defs>
					<path id="SVGID_5_" d="M277.6,129.9l-32.2-63.1c-2.3-2.3-5.4-3.2-8.4-3h-64.4V42.5C172.7,19,153.4,0,129.5,0h-21.6
						C84.1,0,64.8,19,64.8,42.5v21.3H21.6C9.7,63.8,0,73.3,0,85v106.3c0,11.7,9.7,21.3,21.6,21.3h43.2v85
						c0,23.5,19.3,42.5,43.2,42.5h21.6c23.8,0,43.2-19,43.2-42.5v-85h64.8v-0.3c2.9,0.1,5.8-0.9,8-3.1l32.2-63.1
						c2.4-4.5,2.8-5.9,3.1-8.1C280.8,135.1,279.8,133.9,277.6,129.9z M86.4,42.5c0-11.7,9.7-21.3,21.6-21.3h21.6
						c11.9,0,21.6,9.5,21.6,21.3v21.3H86.4V42.5z M151.1,297.5c0,11.7-9.7,21.3-21.6,21.3h-21.6c-11.9,0-21.6-9.5-21.6-21.3v-85
						h64.8V297.5z M232.5,189.4c-1.7,1.1-3.6,1.9-5.8,1.9H32.4c-6,0-10.8-4.8-10.8-10.6v-85c0-5.9,4.8-10.6,10.8-10.6h194.3
						c2.3,0,4.3,0.9,6.1,2.1l25.9,50.9L232.5,189.4z"/>
				</defs>
				<clipPath id="SVGID_6_">
					<use xlink:href="#SVGID_5_"  style="overflow:visible;"/>
				</clipPath>
				<g class="st2">
					<defs>
						<rect id="SVGID_7_" x="0" y="-6.6" width="291.4" height="356.2"/>
					</defs>
					<clipPath id="SVGID_8_">
						<use xlink:href="#SVGID_7_"  style="overflow:visible;"/>
					</clipPath>
					<rect x="-81" y="-81" class="st3" width="442.6" height="501.9"/>
				</g>
			</g>
		</g>
	</g>
</g>
</svg>
